Coordinates
datacolumns 6
datarows 92
range 0 0.91
inDegrees=yes
Units are S.I. units (second, meters, Newtons, ...)
If the header above contains a line with 'inDegrees', this indicates whether rotational values are in degrees (yes) or radians (no).
endheader
time	foot_tx	hip_flexion_r	knee_angle_r	ankle_angle_r	lumbar
0	0.26359349	65.54203782	-66.83160724	2.9436281	-11.38827804
0.01	0.26359478	65.65382149	-66.81801268	2.94049931	-11.49161381
0.02	0.26359517	65.77215643	-66.80244687	2.93534459	-11.60607385
0.03	0.26358437	65.8472895	-66.78758108	2.93352734	-11.792579
0.04	0.26358795	65.98990877	-66.76761312	2.92218974	-11.9228547
0.05	0.2635882	66.13922659	-66.74513101	2.90838344	-12.06926169
0.06	0.26359047	66.29334354	-66.72080239	2.89308776	-12.23274535
0.07	0.26356818	66.37127515	-66.70299791	2.88942576	-12.50638609
0.08	0.26357017	66.55028597	-66.68249911	2.87758296	-12.68047022
0.09	0.26355585	66.63929389	-66.67050955	2.88039587	-12.97820828
0.1	0.26355766	66.76096387	-66.66218484	2.88508928	-13.25416255
0.11	0.26355323	66.87541672	-66.66552843	2.90106539	-13.5539304
0.12	0.2635444	66.9802026	-66.67974957	2.9277126	-13.88044091
0.13	0.26354743	67.07959474	-66.69683037	2.95816627	-14.23162323
0.14	0.26354742	67.19404055	-66.71471752	2.98964755	-14.58701546
0.15	0.26355165	67.34406812	-66.7215717	3.01163892	-14.92905898
0.16	0.26354238	67.53864148	-66.71751152	3.02328961	-15.25016428
0.17	0.2635331	67.82167266	-66.69514753	3.01563716	-15.50192158
0.18	0.26351045	68.12812552	-66.65312972	2.99337343	-15.76315578
0.19	0.26348864	68.46198468	-66.59660762	2.9596019	-16.02459549
0.2	0.26345816	68.9425476	-66.54188529	2.91918566	-16.13817373
0.21	0.26342999	69.38213759	-66.4936097	2.88940111	-16.31817054
0.22	0.26339654	69.81813089	-66.4673874	2.87986085	-16.51344803
0.23	0.26336125	70.23893091	-66.4676748	2.8950195	-16.73481652
0.24	0.26333927	70.60044713	-66.49167176	2.93541972	-17.03409247
0.25	0.26327379	71.05100617	-66.55024475	3.00111768	-17.23819248
0.26	0.26321564	71.43689882	-66.616212	3.08151854	-17.53631307
0.27	0.26316439	71.94348057	-66.67984286	3.1573413	-17.71578182
0.28	0.26309622	72.46690253	-66.74121738	3.23689317	-17.90283709
0.29	0.26301844	73.05296633	-66.79627565	3.31416006	-18.04543532
0.3	0.26294064	73.7035354	-66.84115606	3.38656385	-18.14170424
0.31	0.26285319	74.42249339	-66.87888275	3.45734487	-18.18378559
0.32	0.26275769	75.204424	-66.91088231	3.52898586	-18.17329677
0.33	0.26265398	76.04465763	-66.93924309	3.60443953	-18.11145984
0.34	0.26253878	76.93349625	-66.96688671	3.68750353	-18.00721294
0.35	0.26241965	77.86372694	-66.99422117	3.7794112	-17.8677122
0.36	0.26228734	78.83621315	-67.02477561	3.88359227	-17.68985545
0.37	0.2621503	79.84693013	-67.05710743	3.99967146	-17.47552796
0.38	0.26201091	80.89289532	-67.09119906	4.12863041	-17.22324291
0.39	0.26187595	81.97350243	-67.12822938	4.27152018	-16.92715181
0.4	0.26174796	83.08046668	-67.16705139	4.42934933	-16.5927661
0.41	0.26163818	84.20161598	-67.20689396	4.60236093	-16.23208067
0.42	0.26154327	85.33327716	-67.24752243	4.79122423	-15.84820823
0.43	0.2614677	86.46027979	-67.29071602	4.99749034	-15.45933676
0.44	0.26141099	87.57717651	-67.33418913	5.21968956	-15.0716493
0.45	0.26137083	88.67604181	-67.3784908	5.45775623	-14.69335655
0.46	0.26134583	89.74278385	-67.42642977	5.71305385	-14.33910312
0.47	0.2613326	90.78041398	-67.47530821	5.9827028	-14.00127922
0.48	0.26132584	91.78872402	-67.52388807	6.26456241	-13.6752943
0.49	0.26132826	92.75923693	-67.57159997	6.55599767	-13.36759847
0.5	0.26133599	93.69527955	-67.6150238	6.85273552	-13.06984134
0.51	0.26135178	94.58976325	-67.65421212	7.15212456	-12.78742584
0.52	0.26137735	95.43336431	-67.69251131	7.45360232	-12.52779755
0.53	0.26141351	96.20705217	-67.73476257	7.75863488	-12.30907356
0.54	0.26146492	96.90293223	-67.78471042	8.0678158	-12.13347826
0.55	0.26153316	97.50651705	-67.84726892	8.38370277	-12.01030687
0.56	0.26162185	98.01594057	-67.92328134	8.70643176	-11.93309532
0.57	0.26173246	98.43052544	-68.01072599	9.03505048	-11.8945241
0.58	0.26186644	98.75070035	-68.10587392	9.36773088	-11.88749532
0.59	0.26202463	98.98425624	-68.20161958	9.70076014	-11.89698075
0.6	0.26219947	99.11016108	-68.2963912	10.03581089	-11.94546201
0.61	0.26240462	99.18575717	-68.37226222	10.36041386	-11.95783569
0.62	0.2626223	99.20716671	-68.42980416	10.67721237	-11.93859541
0.63	0.2628518	99.17142304	-68.4616132	10.98372804	-11.89237198
0.64	0.26307972	99.01359236	-68.46872018	11.2860262	-11.90348084
0.65	0.26331227	98.82297494	-68.43692955	11.57283674	-11.861089
0.66	0.26354164	98.573455	-68.36411677	11.84579084	-11.80165663
0.67	0.2637738	98.26220621	-68.24587168	12.10216817	-11.7313888
0.68	0.26400571	97.88558038	-68.07893584	12.34050885	-11.65937127
0.69	0.26423803	97.43800433	-67.86069719	12.55895089	-11.59689963
0.7	0.2644686	96.91572005	-67.59067981	12.75690657	-11.55395523
0.71	0.26470985	96.33010468	-67.26871249	12.93166427	-11.5217069
0.72	0.26494605	95.68644915	-66.8950142	13.08350173	-11.49931659
0.73	0.26517966	94.98757394	-66.47285517	13.2133183	-11.48729564
0.74	0.26540974	94.23944171	-66.00412281	13.32136158	-11.48163009
0.75	0.26563661	93.45005524	-65.49135132	13.40835073	-11.47458464
0.76	0.26585895	92.62321286	-64.93885731	13.476615	-11.46252229
0.77	0.26607615	91.76596618	-64.35038858	13.52794507	-11.4370203
0.78	0.2662874	90.88180729	-63.72996555	13.56439561	-11.39296409
0.79	0.26649039	89.96615438	-63.08184069	13.58855708	-11.33382228
0.8	0.26668605	89.01881043	-62.40797819	13.60114299	-11.25609147
0.81	0.2668772	88.02695138	-61.7109385	13.60347876	-11.17184927
0.82	0.26705747	86.99476795	-60.98896171	13.59474265	-11.07587239
0.83	0.26723773	85.9127948	-60.24447843	13.57547931	-10.98252594
0.84	0.26741332	84.77618741	-59.47967882	13.54759434	-10.90400668
0.85	0.26760686	83.5997791	-58.69568097	13.50920061	-10.8273515
0.86	0.26780139	82.37129545	-57.89630515	13.46456508	-10.77505254
0.87	0.26801228	81.11316352	-57.08227174	13.41150268	-10.72353223
0.88	0.26822409	79.82108524	-56.25513036	13.35222926	-10.68232852
0.89	0.26843777	78.50160252	-55.41361013	13.28539505	-10.64535774
0.9	0.26865235	77.15846441	-54.55478451	13.2091346	-10.60931013
0.91	0.26886769	75.79305367	-53.67591654	13.12196736	-10.57312176
